# xmcd
#
# Track frame offsets:
#	150
#	30166
#	50326
#	90753
#	126433
#	162570
#	176082
#	200111
#	235625
#	278027
#	299143
#
# Disc length: 4755 seconds
#
# Revision: 1
# Processed by: cddbd v1.5.2PL0 Copyright (c) Steve Scherf et al.
# Submitted via: audiograbber 1.83.01
#
DISCID=9a12910b
DTITLE=Grateful Dead - 82-04-18 Hartford Civic Centre, Hartford CT
DYEAR=1900
DGENRE=
TTITLE0=Bertha
TTITLE1=Promised Land
TTITLE2=Friend Of The Devil
TTITLE3=CC Rider
TTITLE4=Ramble On Rose
TTITLE5=Me and My Uncle
TTITLE6=Mexicali Blues
TTITLE7=Althea
TTITLE8=Looks Like Rain
TTITLE9=Big Railroad Blues
TTITLE10=Let It Grow
EXTD=
EXTT0=
EXTT1=
EXTT2=
EXTT3=
EXTT4=
EXTT5=
EXTT6=
EXTT7=
EXTT8=
EXTT9=
EXTT10=
PLAYORDER=
